<?xml version="1.0"?>
<svg version="1.1" xmlns="http://www.w3.org/2000/svg" width="400" height="200" style=""><path fill="#c4cfde" d="M25.978515625,116.7890625l-4.8125-15.681640625l-0.123046875,0q0.259765625,4.78515625,0.259765625,6.384765625l0,9.296875l-3.787109375,0l0-19.98828125l5.76953125,0l4.73046875,15.28515625l0.08203125,0l5.017578125-15.28515625l5.76953125,0l0,19.98828125l-3.951171875,0l0-9.4609375q0-0.669921875,0.0205078125-1.544921875t0.1845703125-4.6484375l-0.123046875,0l-5.154296875,15.654296875l-3.8828125,0z M52.06130859375,105.03125l4.169921875-8.23046875l4.56640625,0l-6.630859375,12.208984375l0,7.779296875l-4.2109375,0l0-7.642578125l-6.630859375-12.345703125l4.59375,0z M65.2378515625,96.80078125l6.220703125,0q4.251953125,0,6.1728515625,1.2099609375t1.9208984375,3.8486328125q0,1.791015625-0.8408203125,2.939453125t-2.2353515625,1.380859375l0,0.13671875q1.900390625,0.423828125,2.7412109375,1.5859375t0.8408203125,3.08984375q0,2.734375-1.9755859375,4.265625t-5.3662109375,1.53125l-7.478515625,0l0-19.98828125z M69.4761328125,104.716796875l2.4609375,0q1.72265625,0,2.4951171875-0.533203125t0.7724609375-1.763671875q0-1.1484375-0.8408203125-1.6474609375t-2.6591796875-0.4990234375l-2.228515625,0l0,4.443359375z M69.4761328125,108.080078125l0,5.208984375l2.76171875,0q1.75,0,2.583984375-0.669921875t0.833984375-2.05078125q0-2.48828125-3.5546875-2.48828125l-2.625,0z M85.97494140625,116.7890625l0-19.98828125l4.23828125,0l0,19.98828125l-4.23828125,0z M115.311640625,106.767578125q0,4.962890625-2.4609375,7.62890625t-7.0546875,2.666015625t-7.0546875-2.666015625t-2.4609375-7.65625t2.4677734375-7.6220703125t7.0751953125-2.6318359375t7.0478515625,2.65234375t2.4404296875,7.62890625z M100.72375,106.767578125q0,3.349609375,1.271484375,5.044921875t3.80078125,1.6953125q5.072265625,0,5.072265625-6.740234375q0-6.75390625-5.044921875-6.75390625q-2.529296875,0-3.814453125,1.7021484375t-1.28515625,5.0517578125z"/><path fill="#c4cfde" d=""/></svg>
