<?xml version="1.0"?>
<svg version="1.1" xmlns="http://www.w3.org/2000/svg" width="400" height="50" style=""><path fill="#c4cfde" d="M25.978515625,41.7890625l-4.8125-15.681640625l-0.123046875,0q0.259765625,4.78515625,0.259765625,6.384765625l0,9.296875l-3.787109375,0l0-19.98828125l5.76953125,0l4.73046875,15.28515625l0.08203125,0l5.017578125-15.28515625l5.76953125,0l0,19.98828125l-3.951171875,0l0-9.4609375q0-0.669921875,0.0205078125-1.544921875t0.1845703125-4.6484375l-0.123046875,0l-5.154296875,15.654296875l-3.8828125,0z M52.06130859375,30.03125l4.169921875-8.23046875l4.56640625,0l-6.630859375,12.208984375l0,7.779296875l-4.2109375,0l0-7.642578125l-6.630859375-12.345703125l4.59375,0z M69.4761328125,31.20703125l1.39453125,0q1.955078125,0,2.92578125-0.7724609375t0.970703125-2.2490234375q0-1.490234375-0.8134765625-2.201171875t-2.5498046875-0.7109375l-1.927734375,0l0,5.93359375z M79.0464453125,28.03515625q0,3.2265625-2.0166015625,4.935546875t-5.7353515625,1.708984375l-1.818359375,0l0,7.109375l-4.23828125,0l0-19.98828125l6.384765625,0q3.63671875,0,5.5302734375,1.5654296875t1.8935546875,4.6689453125z M88.98275390625,30.673828125l1.3671875,0q2.009765625,0,2.966796875-0.669921875t0.95703125-2.10546875q0-1.421875-0.9775390625-2.0234375t-3.0283203125-0.6015625l-1.28515625,0l0,5.400390625z M88.98275390625,34.119140625l0,7.669921875l-4.23828125,0l0-19.98828125l5.82421875,0q4.07421875,0,6.029296875,1.4833984375t1.955078125,4.5048828125q0,1.763671875-0.970703125,3.1376953125t-2.748046875,2.1533203125q4.51171875,6.740234375,5.87890625,8.708984375l-4.703125,0l-4.771484375-7.669921875l-2.255859375,0z M123.296015625,31.767578125q0,4.962890625-2.4609375,7.62890625t-7.0546875,2.666015625t-7.0546875-2.666015625t-2.4609375-7.65625t2.4677734375-7.6220703125t7.0751953125-2.6318359375t7.0478515625,2.65234375t2.4404296875,7.62890625z M108.708125,31.767578125q0,3.349609375,1.271484375,5.044921875t3.80078125,1.6953125q5.072265625,0,5.072265625-6.740234375q0-6.75390625-5.044921875-6.75390625q-2.529296875,0-3.814453125,1.7021484375t-1.28515625,5.0517578125z M133.53310546875,41.7890625l-4.169921875,0l0-19.98828125l11.45703125,0l0,3.47265625l-7.287109375,0l0,5.154296875l6.78125,0l0,3.458984375l-6.78125,0l0,7.90234375z M146.6549609375,41.7890625l0-19.98828125l4.23828125,0l0,19.98828125l-4.23828125,0z M157.84908203125,41.7890625l0-19.98828125l4.23828125,0l0,16.48828125l8.107421875,0l0,3.5l-12.345703125,0z M187.10375,41.7890625l-11.51171875,0l0-19.98828125l11.51171875,0l0,3.47265625l-7.2734375,0l0,4.388671875l6.767578125,0l0,3.47265625l-6.767578125,0l0,5.154296875l7.2734375,0l0,3.5z"/><path fill="#" d=""/></svg>
